STARTFONT 2.1
COMMENT
COMMENT Converted from OpenType font "alagard.ttf" by "otf2bdf 3.0".
COMMENT
FONT -FreeType-Alagard-Medium-R-Normal--17-120-100-100-P-82-ISO10646-1
SIZE 12 100 100
FONTBOUNDINGBOX 14 16 -1 -3
STARTPROPERTIES 19
FOUNDRY "FreeType"
FAMILY_NAME "Alagard"
WEIGHT_NAME "Medium"
SLANT "R"
SETWIDTH_NAME "Normal"
ADD_STYLE_NAME ""
PIXEL_SIZE 17
POINT_SIZE 120
RESOLUTION_X 100
RESOLUTION_Y 100
SPACING "P"
AVERAGE_WIDTH 82
CHARSET_REGISTRY "ISO10646"
CHARSET_ENCODING "1"
FONT_ASCENT 12
FONT_DESCENT 3
COPYRIGHT "Pix3M"
_OTF_FONTFILE "alagard.ttf"
_OTF_PSNAME "Alagard"
ENDPROPERTIES
CHARS 100
STARTCHAR 0020
ENCODING 32
SWIDTH 300 0
DWIDTH 5 0
BBX 0 0 0 0
BITMAP
ENDCHAR
STARTCHAR 0021
ENCODING 33
SWIDTH 300 0
DWIDTH 5 0
BBX 4 12 0 0
BITMAP
20
60
E0
E0
60
60
60
70
60
00
70
60
ENDCHAR
STARTCHAR 0022
ENCODING 34
SWIDTH 540 0
DWIDTH 9 0
BBX 7 6 0 6
BITMAP
66
EE
66
66
66
44
ENDCHAR
STARTCHAR 0023
ENCODING 35
SWIDTH 720 0
DWIDTH 12 0
BBX 11 11 0 0
BITMAP
1180
3380
3380
3380
FFE0
3380
3380
FFE0
3380
3380
2200
ENDCHAR
STARTCHAR 0024
ENCODING 36
SWIDTH 600 0
DWIDTH 10 0
BBX 9 15 0 -2
BITMAP
0800
3E00
4F80
CB80
CB80
C800
FC00
7E00
1780
1380
D380
F200
7C00
1000
1000
ENDCHAR
STARTCHAR 0025
ENCODING 37
SWIDTH 840 0
DWIDTH 14 0
BBX 13 13 0 -1
BITMAP
3000
5810
CC20
CCE0
CCC0
6980
3200
04E0
09B0
1398
2398
41D0
00E0
ENDCHAR
STARTCHAR 0026
ENCODING 38
SWIDTH 780 0
DWIDTH 13 0
BBX 12 12 0 0
BITMAP
7800
CC00
C600
C600
C600
64F0
38E0
78C0
CD80
C600
C790
79E0
ENDCHAR
STARTCHAR 0027
ENCODING 39
SWIDTH 240 0
DWIDTH 4 0
BBX 3 6 0 6
BITMAP
60
E0
60
60
60
40
ENDCHAR
STARTCHAR 0028
ENCODING 40
SWIDTH 420 0
DWIDTH 7 0
BBX 6 15 0 -3
BITMAP
18
3C
6C
EC
C0
C0
C0
C0
C0
C0
C0
C0
E0
78
30
ENDCHAR
STARTCHAR 0029
ENCODING 41
SWIDTH 540 0
DWIDTH 9 0
BBX 6 15 1 -3
BITMAP
20
70
B8
BC
1C
0C
0C
0C
0C
0C
0C
0C
08
10
20
ENDCHAR
STARTCHAR 002A
ENCODING 42
SWIDTH 420 0
DWIDTH 7 0
BBX 6 7 0 5
BITMAP
20
30
FC
FC
70
D8
88
ENDCHAR
STARTCHAR 002B
ENCODING 43
SWIDTH 720 0
DWIDTH 12 0
BBX 11 11 0 0
BITMAP
0400
0C00
1C00
1C00
0C00
0C00
FFE0
0C00
0C00
0E00
0C00
ENDCHAR
STARTCHAR 002C
ENCODING 44
SWIDTH 240 0
DWIDTH 4 0
BBX 3 5 0 -3
BITMAP
60
E0
60
40
80
ENDCHAR
STARTCHAR 002D
ENCODING 45
SWIDTH 420 0
DWIDTH 7 0
BBX 6 1 0 3
BITMAP
FC
ENDCHAR
STARTCHAR 002E
ENCODING 46
SWIDTH 240 0
DWIDTH 4 0
BBX 2 2 1 0
BITMAP
C0
C0
ENDCHAR
STARTCHAR 002F
ENCODING 47
SWIDTH 780 0
DWIDTH 13 0
BBX 11 11 1 0
BITMAP
0020
0040
01C0
0180
0300
0400
0800
1000
2000
4000
8000
ENDCHAR
STARTCHAR 0030
ENCODING 48
SWIDTH 540 0
DWIDTH 9 0
BBX 7 12 0 0
BITMAP
38
5C
CE
CE
C6
CE
D6
E6
C6
E6
74
38
ENDCHAR
STARTCHAR 0031
ENCODING 49
SWIDTH 300 0
DWIDTH 5 0
BBX 4 12 0 0
BITMAP
20
60
E0
E0
60
60
60
60
60
60
60
F0
ENDCHAR
STARTCHAR 0032
ENCODING 50
SWIDTH 420 0
DWIDTH 7 0
BBX 6 12 0 0
BITMAP
78
DC
8C
8C
0C
08
10
20
40
C0
FC
F8
ENDCHAR
STARTCHAR 0033
ENCODING 51
SWIDTH 540 0
DWIDTH 9 0
BBX 7 12 0 0
BITMAP
38
7C
8E
8E
06
04
1C
0E
06
C6
E4
78
ENDCHAR
STARTCHAR 0034
ENCODING 52
SWIDTH 660 0
DWIDTH 11 0
BBX 10 12 0 0
BITMAP
0600
0E00
1600
3600
2600
4600
C600
FFC0
FF80
0600
0600
0600
ENDCHAR
STARTCHAR 0035
ENCODING 53
SWIDTH 540 0
DWIDTH 9 0
BBX 7 12 0 0
BITMAP
FE
C0
C0
D8
D8
FC
CE
86
06
C6
E4
78
ENDCHAR
STARTCHAR 0036
ENCODING 54
SWIDTH 600 0
DWIDTH 10 0
BBX 9 12 0 0
BITMAP
1E00
2780
4380
C380
C000
DC00
EE00
C780
C380
E380
7200
3C00
ENDCHAR
STARTCHAR 0037
ENCODING 55
SWIDTH 600 0
DWIDTH 10 0
BBX 9 12 0 0
BITMAP
3F80
7F80
8200
8600
0400
0800
1800
1800
1800
1800
1C00
1800
ENDCHAR
STARTCHAR 0038
ENCODING 56
SWIDTH 600 0
DWIDTH 10 0
BBX 9 12 0 0
BITMAP
3E00
4780
C380
E380
E380
7200
3C00
4E00
C780
E380
7200
3C00
ENDCHAR
STARTCHAR 0039
ENCODING 57
SWIDTH 600 0
DWIDTH 10 0
BBX 9 12 0 0
BITMAP
3C00
4E00
C780
C780
C380
E380
7380
3F80
0380
C200
E400
7800
ENDCHAR
STARTCHAR 003A
ENCODING 58
SWIDTH 240 0
DWIDTH 4 0
BBX 2 7 1 0
BITMAP
C0
C0
00
00
00
C0
C0
ENDCHAR
STARTCHAR 003B
ENCODING 59
SWIDTH 240 0
DWIDTH 4 0
BBX 3 10 0 -3
BITMAP
60
60
00
00
00
60
E0
60
40
80
ENDCHAR
STARTCHAR 003C
ENCODING 60
SWIDTH 360 0
DWIDTH 6 0
BBX 5 10 0 0
BITMAP
08
18
10
20
40
80
C0
60
30
18
ENDCHAR
STARTCHAR 003D
ENCODING 61
SWIDTH 600 0
DWIDTH 10 0
BBX 8 4 1 2
BITMAP
FF
00
00
FF
ENDCHAR
STARTCHAR 003E
ENCODING 62
SWIDTH 420 0
DWIDTH 7 0
BBX 5 10 1 0
BITMAP
C0
E0
60
30
18
08
10
20
40
80
ENDCHAR
STARTCHAR 003F
ENCODING 63
SWIDTH 540 0
DWIDTH 9 0
BBX 7 11 0 0
BITMAP
38
5C
DE
8E
06
04
08
10
00
30
30
ENDCHAR
STARTCHAR 0040
ENCODING 64
SWIDTH 840 0
DWIDTH 14 0
BBX 13 14 0 -3
BITMAP
1FE0
20F0
66F8
4638
CF98
D1D8
C7D8
C9D8
D9D0
D9E0
CFC0
E008
7010
3FE0
ENDCHAR
STARTCHAR 0041
ENCODING 65
SWIDTH 600 0
DWIDTH 10 0
BBX 9 12 0 0
BITMAP
1800
3C00
4E00
CE00
C600
C600
CE00
D600
E600
C600
E780
C600
ENDCHAR
STARTCHAR 0042
ENCODING 66
SWIDTH 600 0
DWIDTH 10 0
BBX 9 12 0 0
BITMAP
3C00
6E00
E780
E780
6200
6400
6E00
6780
6380
6380
E200
7C00
ENDCHAR
STARTCHAR 0043
ENCODING 67
SWIDTH 600 0
DWIDTH 10 0
BBX 9 12 0 0
BITMAP
1D80
2F80
4780
C780
C000
C000
C000
C000
C000
E180
7200
3C00
ENDCHAR
STARTCHAR 0044
ENCODING 68
SWIDTH 660 0
DWIDTH 11 0
BBX 10 12 0 0
BITMAP
3E00
6780
E3C0
E3C0
61C0
61C0
61C0
61C0
6180
6200
6400
7800
ENDCHAR
STARTCHAR 0045
ENCODING 69
SWIDTH 660 0
DWIDTH 11 0
BBX 10 12 0 0
BITMAP
2EC0
77C0
E380
E380
6000
6000
7C00
6000
6000
6000
7180
3E00
ENDCHAR
STARTCHAR 0046
ENCODING 70
SWIDTH 660 0
DWIDTH 11 0
BBX 10 12 0 0
BITMAP
2EC0
77C0
E380
E380
6000
6000
7C00
6000
6000
6000
7000
6000
ENDCHAR
STARTCHAR 0047
ENCODING 71
SWIDTH 600 0
DWIDTH 10 0
BBX 9 12 0 0
BITMAP
1E00
2780
4380
C380
C000
C000
C000
C780
C380
E380
7200
3C00
ENDCHAR
STARTCHAR 0048
ENCODING 72
SWIDTH 660 0
DWIDTH 11 0
BBX 10 12 0 0
BITMAP
2180
6380
E380
E380
6380
6380
7F80
6380
6380
6380
63C0
6380
ENDCHAR
STARTCHAR 0049
ENCODING 73
SWIDTH 300 0
DWIDTH 5 0
BBX 4 12 0 0
BITMAP
20
60
E0
E0
60
60
60
60
60
60
70
60
ENDCHAR
STARTCHAR 004A
ENCODING 74
SWIDTH 240 0
DWIDTH 4 0
BBX 3 14 0 -2
BITMAP
20
60
E0
E0
60
60
60
60
60
60
60
60
40
80
ENDCHAR
STARTCHAR 004B
ENCODING 75
SWIDTH 660 0
DWIDTH 11 0
BBX 10 12 0 0
BITMAP
2180
6380
E380
E780
6600
6C00
7E00
7780
6380
6380
73C0
6380
ENDCHAR
STARTCHAR 004C
ENCODING 76
SWIDTH 540 0
DWIDTH 9 0
BBX 7 12 0 0
BITMAP
20
60
E0
E0
60
60
60
60
60
60
62
7C
ENDCHAR
STARTCHAR 004D
ENCODING 77
SWIDTH 840 0
DWIDTH 14 0
BBX 13 12 0 0
BITMAP
2630
6EF0
F7B0
F7B0
6630
6630
6630
6630
6630
6630
77B8
6630
ENDCHAR
STARTCHAR 004E
ENCODING 78
SWIDTH 720 0
DWIDTH 12 0
BBX 11 12 0 0
BITMAP
20C0
61C0
E1C0
F1C0
71C0
69C0
65C0
63C0
61C0
61C0
71E0
61C0
ENDCHAR
STARTCHAR 004F
ENCODING 79
SWIDTH 600 0
DWIDTH 10 0
BBX 9 12 0 0
BITMAP
1C00
2E00
4780
C780
C380
C380
C380
C380
C380
E200
7400
3800
ENDCHAR
STARTCHAR 0050
ENCODING 80
SWIDTH 600 0
DWIDTH 10 0
BBX 9 12 0 0
BITMAP
2E00
7780
E380
E380
6380
6380
6200
7C00
7800
6000
7000
6000
ENDCHAR
STARTCHAR 0051
ENCODING 81
SWIDTH 660 0
DWIDTH 11 0
BBX 10 14 0 -2
BITMAP
1C00
2E00
4780
C780
C380
C380
C380
C380
C380
E200
7400
3EC0
0780
0200
ENDCHAR
STARTCHAR 0052
ENCODING 82
SWIDTH 660 0
DWIDTH 11 0
BBX 10 12 0 0
BITMAP
2E00
7780
E380
E380
6200
6600
6F80
7380
6380
6380
73C0
6380
ENDCHAR
STARTCHAR 0053
ENCODING 83
SWIDTH 600 0
DWIDTH 10 0
BBX 9 12 0 0
BITMAP
1C00
2F80
4600
C600
C000
FC00
7E00
0780
0380
C200
E400
7800
ENDCHAR
STARTCHAR 0054
ENCODING 84
SWIDTH 660 0
DWIDTH 11 0
BBX 10 12 0 0
BITMAP
3EC0
4BC0
99C0
99C0
1800
1800
1800
1800
1800
18C0
1D80
0E00
ENDCHAR
STARTCHAR 0055
ENCODING 85
SWIDTH 720 0
DWIDTH 12 0
BBX 11 12 0 0
BITMAP
20C0
61C0
E3C0
E3C0
61C0
61C0
61C0
61C0
61C0
61C0
71E0
3FC0
ENDCHAR
STARTCHAR 0056
ENCODING 86
SWIDTH 660 0
DWIDTH 11 0
BBX 10 12 0 0
BITMAP
20C0
61C0
E1C0
E1C0
61C0
61C0
61C0
61C0
71C0
3980
1E00
0C00
ENDCHAR
STARTCHAR 0057
ENCODING 87
SWIDTH 780 0
DWIDTH 13 0
BBX 12 12 0 0
BITMAP
2010
6030
E030
E230
6230
6630
6630
6630
6630
7620
3EC0
1780
ENDCHAR
STARTCHAR 0058
ENCODING 88
SWIDTH 660 0
DWIDTH 11 0
BBX 10 12 0 0
BITMAP
2180
6380
E380
F380
7380
3A00
1C00
2E00
6780
6380
E3C0
6380
ENDCHAR
STARTCHAR 0059
ENCODING 89
SWIDTH 660 0
DWIDTH 11 0
BBX 10 12 0 0
BITMAP
20C0
61C0
E1C0
E1C0
61C0
7180
3A00
1C00
0C00
0C00
0E00
0C00
ENDCHAR
STARTCHAR 005A
ENCODING 90
SWIDTH 600 0
DWIDTH 10 0
BBX 9 12 0 0
BITMAP
3E00
7F80
8200
8600
0400
0800
7C00
2000
4000
C180
FE00
7C00
ENDCHAR
STARTCHAR 005B
ENCODING 91
SWIDTH 360 0
DWIDTH 6 0
BBX 4 14 1 -2
BITMAP
F0
C0
C0
C0
C0
C0
C0
C0
C0
C0
C0
C0
C0
F0
ENDCHAR
STARTCHAR 005C
ENCODING 92
SWIDTH 720 0
DWIDTH 12 0
BBX 11 11 0 0
BITMAP
C000
E000
F000
7000
3800
1C00
0E00
0780
03C0
01E0
00E0
ENDCHAR
STARTCHAR 005D
ENCODING 93
SWIDTH 300 0
DWIDTH 5 0
BBX 4 14 0 -2
BITMAP
F0
30
30
30
30
30
30
30
30
30
30
30
30
F0
ENDCHAR
STARTCHAR 005E
ENCODING 94
SWIDTH 600 0
DWIDTH 10 0
BBX 9 6 0 6
BITMAP
0800
1C00
2E00
6F80
4780
8380
ENDCHAR
STARTCHAR 005F
ENCODING 95
SWIDTH 660 0
DWIDTH 11 0
BBX 11 1 -1 0
BITMAP
FFE0
ENDCHAR
STARTCHAR 0060
ENCODING 96
SWIDTH 360 0
DWIDTH 6 0
BBX 3 4 2 8
BITMAP
C0
E0
60
60
ENDCHAR
STARTCHAR 0061
ENCODING 97
SWIDTH 540 0
DWIDTH 9 0
BBX 7 9 0 0
BITMAP
38
38
7C
8C
3C
4C
CC
CE
7C
ENDCHAR
STARTCHAR 0062
ENCODING 98
SWIDTH 600 0
DWIDTH 10 0
BBX 9 12 0 0
BITMAP
2000
6000
E000
E600
6600
6F80
7380
6380
6380
6380
6200
7C00
ENDCHAR
STARTCHAR 0063
ENCODING 99
SWIDTH 540 0
DWIDTH 9 0
BBX 7 9 0 0
BITMAP
3A
3A
4E
C6
C0
C0
E0
72
3C
ENDCHAR
STARTCHAR 0064
ENCODING 100
SWIDTH 600 0
DWIDTH 10 0
BBX 9 12 0 0
BITMAP
0600
0E00
0600
7600
7600
DE00
CE00
C600
C600
E600
7F80
3600
ENDCHAR
STARTCHAR 0065
ENCODING 101
SWIDTH 540 0
DWIDTH 9 0
BBX 7 9 0 0
BITMAP
3C
3C
4E
C4
C8
D0
E0
E2
7C
ENDCHAR
STARTCHAR 0066
ENCODING 102
SWIDTH 540 0
DWIDTH 9 0
BBX 7 12 0 0
BITMAP
1A
2E
66
66
60
60
F8
60
60
60
70
60
ENDCHAR
STARTCHAR 0067
ENCODING 103
SWIDTH 600 0
DWIDTH 10 0
BBX 9 12 0 -3
BITMAP
3600
3600
5F80
CE00
C600
C600
C600
6E00
3600
C600
E400
7800
ENDCHAR
STARTCHAR 0068
ENCODING 104
SWIDTH 660 0
DWIDTH 11 0
BBX 10 12 0 0
BITMAP
2000
6000
E000
E600
6600
6F80
7380
6380
6380
6380
63C0
6380
ENDCHAR
STARTCHAR 0069
ENCODING 105
SWIDTH 300 0
DWIDTH 5 0
BBX 4 12 0 0
BITMAP
20
60
40
40
00
20
60
E0
60
60
70
60
ENDCHAR
STARTCHAR 006A
ENCODING 106
SWIDTH 240 0
DWIDTH 4 0
BBX 3 15 0 -3
BITMAP
20
60
40
40
00
20
60
E0
60
60
60
60
60
40
80
ENDCHAR
STARTCHAR 006B
ENCODING 107
SWIDTH 660 0
DWIDTH 11 0
BBX 10 12 0 0
BITMAP
2000
6000
E600
E600
6600
6C00
7E00
7780
6380
6380
73C0
6380
ENDCHAR
STARTCHAR 006C
ENCODING 108
SWIDTH 300 0
DWIDTH 5 0
BBX 4 12 0 0
BITMAP
20
60
E0
E0
60
60
60
60
60
60
70
60
ENDCHAR
STARTCHAR 006D
ENCODING 109
SWIDTH 840 0
DWIDTH 14 0
BBX 13 9 0 0
BITMAP
2630
2630
6EF0
F7B0
6630
6630
6630
6638
6630
ENDCHAR
STARTCHAR 006E
ENCODING 110
SWIDTH 660 0
DWIDTH 11 0
BBX 10 9 0 0
BITMAP
2780
2780
6B80
F380
6380
6380
6380
73C0
6380
ENDCHAR
STARTCHAR 006F
ENCODING 111
SWIDTH 540 0
DWIDTH 9 0
BBX 7 9 0 0
BITMAP
38
38
5C
CE
C6
C6
E6
74
38
ENDCHAR
STARTCHAR 0070
ENCODING 112
SWIDTH 600 0
DWIDTH 10 0
BBX 9 12 0 -3
BITMAP
1C00
1C00
2E00
6780
E380
6380
7380
7A00
6C00
6000
7000
6000
ENDCHAR
STARTCHAR 0071
ENCODING 113
SWIDTH 600 0
DWIDTH 10 0
BBX 9 12 0 -3
BITMAP
3600
3600
5E00
CE00
C600
C600
E600
7E00
3600
0600
0780
0600
ENDCHAR
STARTCHAR 0072
ENCODING 114
SWIDTH 540 0
DWIDTH 9 0
BBX 7 9 0 0
BITMAP
24
24
6E
F6
60
60
60
70
60
ENDCHAR
STARTCHAR 0073
ENCODING 115
SWIDTH 420 0
DWIDTH 7 0
BBX 6 9 0 0
BITMAP
78
78
CC
E0
70
38
9C
CC
78
ENDCHAR
STARTCHAR 0074
ENCODING 116
SWIDTH 360 0
DWIDTH 6 0
BBX 5 12 0 0
BITMAP
20
60
E0
E0
60
F8
60
60
60
68
70
60
ENDCHAR
STARTCHAR 0075
ENCODING 117
SWIDTH 660 0
DWIDTH 11 0
BBX 10 9 0 0
BITMAP
2180
2180
6380
E380
6380
6380
6780
7BC0
3380
ENDCHAR
STARTCHAR 0076
ENCODING 118
SWIDTH 600 0
DWIDTH 10 0
BBX 9 9 0 0
BITMAP
2180
2180
6380
E380
6380
6380
7200
3C00
1800
ENDCHAR
STARTCHAR 0077
ENCODING 119
SWIDTH 780 0
DWIDTH 13 0
BBX 12 9 0 0
BITMAP
2010
2010
6030
E230
6630
6630
7630
3FA0
19C0
ENDCHAR
STARTCHAR 0078
ENCODING 120
SWIDTH 720 0
DWIDTH 12 0
BBX 11 9 0 0
BITMAP
6180
6180
F3C0
3DC0
1C00
0E00
CF80
F3E0
61C0
ENDCHAR
STARTCHAR 0079
ENCODING 121
SWIDTH 540 0
DWIDTH 9 0
BBX 7 12 0 -3
BITMAP
22
22
66
E6
66
66
6E
76
26
84
C8
70
ENDCHAR
STARTCHAR 007A
ENCODING 122
SWIDTH 540 0
DWIDTH 9 0
BBX 7 9 0 0
BITMAP
3E
3E
7C
88
10
20
42
FC
F8
ENDCHAR
STARTCHAR 007B
ENCODING 123
SWIDTH 300 0
DWIDTH 5 0
BBX 4 14 0 -3
BITMAP
10
20
60
60
60
60
60
C0
60
60
60
60
70
30
ENDCHAR
STARTCHAR 007C
ENCODING 124
SWIDTH 300 0
DWIDTH 5 0
BBX 2 15 2 -3
BITMAP
40
C0
C0
C0
C0
C0
C0
C0
C0
C0
C0
C0
C0
C0
80
ENDCHAR
STARTCHAR 007D
ENCODING 125
SWIDTH 300 0
DWIDTH 5 0
BBX 4 14 0 -3
BITMAP
C0
E0
E0
60
60
60
60
30
60
60
60
60
40
80
ENDCHAR
STARTCHAR 007E
ENCODING 126
SWIDTH 600 0
DWIDTH 10 0
BBX 9 4 0 2
BITMAP
3000
7980
9E00
0C00
ENDCHAR
STARTCHAR 00A2
ENCODING 162
SWIDTH 540 0
DWIDTH 9 0
BBX 7 13 0 -2
BITMAP
08
08
3A
3A
4E
D6
D0
D0
E0
72
3C
20
20
ENDCHAR
STARTCHAR 00A3
ENCODING 163
SWIDTH 540 0
DWIDTH 9 0
BBX 7 11 0 0
BITMAP
7A
CE
CE
C6
C0
60
F8
60
60
F2
CC
ENDCHAR
STARTCHAR 00A5
ENCODING 165
SWIDTH 660 0
DWIDTH 11 0
BBX 10 12 0 0
BITMAP
20C0
61C0
E1C0
E1C0
61C0
7180
3A00
7FC0
0C00
3F80
0C00
0C00
ENDCHAR
STARTCHAR 20AC
ENCODING 8364
SWIDTH 660 0
DWIDTH 11 0
BBX 10 12 0 0
BITMAP
0EC0
17C0
23C0
63C0
6000
FC00
6000
FC00
6000
70C0
3980
1E00
ENDCHAR
STARTCHAR 3000
ENCODING 12288
SWIDTH 1020 0
DWIDTH 17 0
BBX 0 0 0 0
BITMAP
ENDCHAR
ENDFONT
